<svg width="30" height="30" viewBox="6.5 6.5 30 30" fill="none" xmlns="http://www.w3.org/2000/svg">
<g fill="#333">
<path fill-rule="evenodd" clip-rule="evenodd" d="M11.3653 11.3561C13.4474 9.27684 16.0993 7.86154 18.9857 7.28917C21.872 6.7168 24.8632 7.01313 27.5812 8.14057C30.2992 9.26801 32.6219 11.176 34.2557 13.6233C35.8895 16.0707 36.761 18.9474 36.76 21.89C36.759 24.8325 35.8855 27.7088 34.2501 30.155C32.6147 32.6013 30.2908 34.5076 27.572 35.6333C24.8533 36.7589 21.8618 37.0532 18.9758 36.4789C16.0898 35.9046 13.439 34.4874 11.3583 32.4067C8.56821 29.614 7.00154 25.8276 7.00287 21.88C7.00419 17.9324 8.57342 14.1469 11.3653 11.3561ZM12.6806 12.6714C14.5025 10.8522 16.8229 9.61409 19.3485 9.11349C21.874 8.61289 24.4913 8.8723 26.8695 9.85896C29.2476 10.8456 31.2798 12.5152 32.7092 14.6567C34.1386 16.7981 34.901 19.3153 34.9 21.89C34.899 24.4646 34.1347 26.9813 32.7037 29.1216C31.2726 31.262 29.2391 32.93 26.8602 33.9148C24.4813 34.8997 21.8639 35.1571 19.3387 34.6545C16.8136 34.152 14.4941 32.9121 12.6735 31.0915C11.4641 29.8818 10.5049 28.4456 9.85072 26.8651C9.19654 25.2845 8.86021 23.5905 8.86086 21.88C8.86152 20.1694 9.19915 18.4757 9.85455 16.8957C10.5099 15.3156 11.4703 13.8802 12.6806 12.6714Z" />
<rect x="16.8589" y="25.6333" width="12.4218" height="1.78" rx="0.89" transform="rotate(-45 16.8589 25.6333)" />
<rect x="25.6425" y="26.892" width="12.4218" height="1.78" rx="0.89" transform="rotate(-135 25.6425 26.892)"/>
</g>
</svg>
