<svg xmlns="http://www.w3.org/2000/svg" xmlns:xlink="http://www.w3.org/1999/xlink" width="30" height="30" viewBox="0 0 30 30">
  <metadata><?xpacket begin="﻿" id="W5M0MpCehiHzreSzNTczkc9d"?>
<x:xmpmeta xmlns:x="adobe:ns:meta/" x:xmptk="Adobe XMP Core 5.6-c142 79.160924, 2017/07/13-01:06:39        ">
   <rdf:RDF xmlns:rdf="http://www.w3.org/1999/02/22-rdf-syntax-ns#">
      <rdf:Description rdf:about=""/>
   </rdf:RDF>
</x:xmpmeta>
                                                                                                    
                                                                                                    
                                                                                                    
                                                                                                    
                                                                                                    
                                                                                                    
                                                                                                    
                                                                                                    
                                                                                                    
                                                                                                    
                                                                                                    
                                                                                                    
                                                                                                    
                                                                                                    
                                                                                                    
                                                                                                    
                                                                                                    
                                                                                                    
                                                                                                    
                                                                                                    
                           
<?xpacket end="w"?></metadata>
<defs>
    <style>
      .cls-1 {
        fill-rule: evenodd;
        filter: url(#filter);
      }
    </style>
    <filter id="filter" x="490" y="2322" width="30" height="30" filterUnits="userSpaceOnUse">
      <feFlood result="flood" flood-color="#fff"/>
      <feComposite result="composite" operator="in" in2="SourceGraphic"/>
      <feBlend result="blend" in2="SourceGraphic"/>
    </filter>
  </defs>
  <path id="fa-phone" class="cls-1" d="M519.931,2345.25a3.56,3.56,0,0,0-1.619-1.13c-0.27-.16-0.653-0.37-1.15-0.64s-0.948-.52-1.353-0.75-0.785-.44-1.14-0.66c-0.057-.04-0.234-0.16-0.533-0.37a5.591,5.591,0,0,0-.756-0.46,1.382,1.382,0,0,0-.607-0.15,1.748,1.748,0,0,0-1.065.61,9.8,9.8,0,0,0-1.172,1.32,11.89,11.89,0,0,1-1.129,1.32,1.6,1.6,0,0,1-.98.61,1.483,1.483,0,0,1-.479-0.11,4.3,4.3,0,0,1-.437-0.18c-0.1-.05-0.27-0.15-0.511-0.3s-0.377-.23-0.4-0.24a21.131,21.131,0,0,1-8.713-8.72c-0.014-.02-0.1-0.16-0.245-0.4s-0.249-.41-0.3-0.51-0.11-.25-0.181-0.44a1.4,1.4,0,0,1-.107-0.48,1.647,1.647,0,0,1,.607-0.98,14.619,14.619,0,0,1,1.321-1.13,9.724,9.724,0,0,0,1.321-1.17,1.752,1.752,0,0,0,.607-1.06,1.417,1.417,0,0,0-.149-0.61,5.744,5.744,0,0,0-.458-0.76c-0.206-.3-0.33-0.47-0.373-0.53q-0.32-.525-0.66-1.14-0.342-.6-0.746-1.35c-0.27-.5-0.483-0.88-0.639-1.15a3.581,3.581,0,0,0-1.129-1.62,1.23,1.23,0,0,0-.447-0.07,7.24,7.24,0,0,0-1.5.22,7.958,7.958,0,0,0-1.46.45,5.654,5.654,0,0,0-2.258,2.59,7.938,7.938,0,0,0-1.012,5.09,9.1,9.1,0,0,0,.267,1.22c0.127,0.45.23,0.79,0.309,1.01s0.223,0.62.436,1.18,0.341,0.92.384,1.05a19.525,19.525,0,0,0,1.768,3.73,31.9,31.9,0,0,0,4.591,5.63,31.419,31.419,0,0,0,5.634,4.59,19.588,19.588,0,0,0,3.729,1.77c0.127,0.04.475,0.17,1.043,0.38s0.962,0.36,1.183.44,0.557,0.18,1.012.31a8.935,8.935,0,0,0,1.225.27,7.975,7.975,0,0,0,5.081-1.02,5.674,5.674,0,0,0,2.6-2.25,8.766,8.766,0,0,0,.448-1.46,7.06,7.06,0,0,0,.213-1.51,1.175,1.175,0,0,0-.064-0.44h0Z" transform="translate(-490 -2322)"/>
</svg>
