<svg xmlns="http://www.w3.org/2000/svg" xmlns:xlink="http://www.w3.org/1999/xlink" width="23" height="30" viewBox="0 0 23 30">
  <metadata><?xpacket begin="﻿" id="W5M0MpCehiHzreSzNTczkc9d"?>
<x:xmpmeta xmlns:x="adobe:ns:meta/" x:xmptk="Adobe XMP Core 5.6-c142 79.160924, 2017/07/13-01:06:39        ">
   <rdf:RDF xmlns:rdf="http://www.w3.org/1999/02/22-rdf-syntax-ns#">
      <rdf:Description rdf:about=""/>
   </rdf:RDF>
</x:xmpmeta>
                                                                                                    
                                                                                                    
                                                                                                    
                                                                                                    
                                                                                                    
                                                                                                    
                                                                                                    
                                                                                                    
                                                                                                    
                                                                                                    
                                                                                                    
                                                                                                    
                                                                                                    
                                                                                                    
                                                                                                    
                                                                                                    
                                                                                                    
                                                                                                    
                                                                                                    
                                                                                                    
                           
<?xpacket end="w"?></metadata>
<defs>
    <style>
      .cls-1 {
        fill-rule: evenodd;
        filter: url(#filter);
      }
    </style>
    <filter id="filter" x="1194" y="2384" width="23" height="30" filterUnits="userSpaceOnUse">
      <feFlood result="flood" flood-color="#f4f4f4"/>
      <feComposite result="composite" operator="in" in2="SourceGraphic"/>
      <feBlend result="blend" in2="SourceGraphic"/>
    </filter>
  </defs>
  <path id="fa-pinterest-p" class="cls-1" d="M1194.2,2396.69a10.749,10.749,0,0,0,.58,1.94,5.184,5.184,0,0,0,1.1,1.7,3.578,3.578,0,0,0,1.62,1.01c0.18,0.04.29,0.06,0.31,0.06a0.926,0.926,0,0,0,.66-0.81,4.393,4.393,0,0,0,.27-1.32,1.332,1.332,0,0,0-.22-0.55c-0.15-.26-0.31-0.53-0.49-0.82a5.6,5.6,0,0,1-.48-1.17,5.2,5.2,0,0,1-.23-1.53,7.921,7.921,0,0,1,2.41-5.92,8.316,8.316,0,0,1,6-2.33,7.451,7.451,0,0,1,5.13,1.74,6.1,6.1,0,0,1,1.97,4.85,16.2,16.2,0,0,1-.11,1.79c-0.08.63-.2,1.3-0.36,2a9.735,9.735,0,0,1-.69,1.99,10.621,10.621,0,0,1-1,1.72,4.242,4.242,0,0,1-1.41,1.22,3.882,3.882,0,0,1-1.84.45,2.793,2.793,0,0,1-1.96-.75,2.456,2.456,0,0,1-.8-1.88,11.322,11.322,0,0,1,.79-3.37,11.653,11.653,0,0,0,.79-3.44,2.842,2.842,0,0,0-.61-1.85,2.135,2.135,0,0,0-1.71-.73,2.8,2.8,0,0,0-2.37,1.32,4.722,4.722,0,0,0-.94,2.81,6.882,6.882,0,0,0,.58,3.05c-0.09.36-.4,1.57-0.94,3.65s-0.93,3.81-1.19,5.18a20.3,20.3,0,0,0-.39,3.72q0,0.555.27,3.39l0.16,0.18,0.25-.09c0.45-.6.82-1.12,1.12-1.56a13.592,13.592,0,0,0,.83-1.4c0.25-.49.44-0.86,0.57-1.12a8.99,8.99,0,0,0,.47-1.28c0.18-.6.3-1.02,0.37-1.28s0.2-.83.42-1.71,0.38-1.56.5-2.03a3.646,3.646,0,0,0,1.73,1.59,5.6,5.6,0,0,0,2.42.57,8.232,8.232,0,0,0,3.4-.69,7.614,7.614,0,0,0,2.6-1.86,10.905,10.905,0,0,0,1.8-2.69,13.794,13.794,0,0,0,1.08-3.19,16.493,16.493,0,0,0,.34-3.38,9.057,9.057,0,0,0-1.53-5.17,9.972,9.972,0,0,0-3.97-3.49,11.822,11.822,0,0,0-5.28-1.2,14.346,14.346,0,0,0-3.63.47,12.712,12.712,0,0,0-3.33,1.4,12.872,12.872,0,0,0-2.73,2.22,9.372,9.372,0,0,0-1.86,3A10,10,0,0,0,1194.2,2396.69Z" transform="translate(-1194 -2384)"/>
</svg>
