<svg xmlns="http://www.w3.org/2000/svg" width="59.5" height="60.13" viewBox="0 0 59.5 60.13">
  <path fill="#333" d="M519.892,1766.01a29.813,29.813,0,0,1,29.744,30.14c-0.177,16.95-13.316,29.87-29.615,29.97a29.97,29.97,0,0,1-29.9-30.03C490.205,1779.32,503.283,1766.03,519.892,1766.01Zm-0.031,57.83a27.833,27.833,0,0,0,.14-55.66c-14.945-.1-27.438,12.39-27.747,27.26C491.94,1810.59,504.494,1824.15,519.861,1823.84Zm17.667-19.48a13.418,13.418,0,0,0-.365,2.43,6.323,6.323,0,0,0,.492,2.61,2.915,2.915,0,0,1-.433,3.71c-1.378,1.44-2.584,1.66-4.046,1.02a5.145,5.145,0,0,0-2.873-.44,9.5,9.5,0,0,1-11.113-6.19,3.529,3.529,0,0,0-2.421-2.47,8.5,8.5,0,0,1-5.8-5.92,3.322,3.322,0,0,0-2.326-2.34c-4.994-1.86-7.225-6.21-6.145-11.45a3.965,3.965,0,0,0-.444-2.58,2.911,2.911,0,0,1,.615-3.97c1.128-1.13,2.282-1.7,3.907-.77a4.039,4.039,0,0,0,2.714.45,9.644,9.644,0,0,1,11.353,6.31,4.047,4.047,0,0,0,2.184,2.19,9.445,9.445,0,0,1,5.949,6.06,3.213,3.213,0,0,0,2.327,2.31A9.33,9.33,0,0,1,537.528,1804.36Zm-1.4,6.92c-0.241-.07-0.482-0.13-0.723-0.19-0.144-1.51-.672-3.1-0.359-4.5,0.964-4.3-.963-8.02-5.126-9.27a4.176,4.176,0,0,1-3.081-3.08,7.058,7.058,0,0,0-5.024-5.19,4.742,4.742,0,0,1-3.29-3.35c-1.288-3.96-4.655-5.97-8.637-5.06a5.108,5.108,0,0,1-4.347-.49,1.226,1.226,0,0,0-1.167.19,1.292,1.292,0,0,0-.311,1.16c1.092,1.5.923,3.04,0.541,4.73a6.971,6.971,0,0,0,4.742,8.37,5.167,5.167,0,0,1,3.709,3.82,6.23,6.23,0,0,0,4.391,4.48,5.2,5.2,0,0,1,3.81,3.73,7.021,7.021,0,0,0,8.473,4.83c1.815-.41,3.465-0.45,5,0.95Zm-16.2-20.36a5.041,5.041,0,0,1,5.04,5.24,5.186,5.186,0,0,1-5.109,5.06,5.052,5.052,0,0,1-5.074-5.21A4.96,4.96,0,0,1,519.929,1790.92Zm-0.158,2.16a2.973,2.973,0,1,0,2.938,2.88A2.958,2.958,0,0,0,519.771,1793.08Zm3.18,11.19a4.886,4.886,0,0,1,5.061-5.12,5.146,5.146,0,0,1,5.147,5.14,5.24,5.24,0,0,1-5.175,5.15A4.99,4.99,0,0,1,522.951,1804.27Zm5.134-3a3.24,3.24,0,0,0-3.025,2.88,3.2,3.2,0,0,0,2.807,3.09,2.94,2.94,0,0,0,2.956-2.86A3,3,0,0,0,528.085,1801.27Zm-21.347-13.43a5.106,5.106,0,1,1,5.048,5.22A5.029,5.029,0,0,1,506.738,1787.84Zm2.161,0.09a3.072,3.072,0,0,0,2.9,2.98,2.966,2.966,0,0,0,.039-5.93A3.136,3.136,0,0,0,508.9,1787.93Z" transform="translate(-490.125 -1766)"/>
</svg>
