<svg xmlns="http://www.w3.org/2000/svg" xmlns:xlink="http://www.w3.org/1999/xlink" width="29" height="30" viewBox="0 0 29 30">
  <metadata><?xpacket begin="﻿" id="W5M0MpCehiHzreSzNTczkc9d"?>
<x:xmpmeta xmlns:x="adobe:ns:meta/" x:xmptk="Adobe XMP Core 5.6-c142 79.160924, 2017/07/13-01:06:39        ">
   <rdf:RDF xmlns:rdf="http://www.w3.org/1999/02/22-rdf-syntax-ns#">
      <rdf:Description rdf:about=""/>
   </rdf:RDF>
</x:xmpmeta>
                                                                                                    
                                                                                                    
                                                                                                    
                                                                                                    
                                                                                                    
                                                                                                    
                                                                                                    
                                                                                                    
                                                                                                    
                                                                                                    
                                                                                                    
                                                                                                    
                                                                                                    
                                                                                                    
                                                                                                    
                                                                                                    
                                                                                                    
                                                                                                    
                                                                                                    
                                                                                                    
                           
<?xpacket end="w"?></metadata>
<defs>
    <style>
      .cls-1 {
        fill-rule: evenodd;
        filter: url(#filter);
      }
    </style>
    <filter id="filter" x="1194" y="2535" width="29" height="30" filterUnits="userSpaceOnUse">
      <feFlood result="flood" flood-color="#f4f4f4"/>
      <feComposite result="composite" operator="in" in2="SourceGraphic"/>
      <feBlend result="blend" in2="SourceGraphic"/>
    </filter>
  </defs>
  <path id="fa-google-plus" class="cls-1" d="M1207.35,2548.16a7.566,7.566,0,0,1,1.09-1.11,15.154,15.154,0,0,0,1.27-1.17,5.356,5.356,0,0,0,1.08-1.67,5.8,5.8,0,0,0,.45-2.33,5.91,5.91,0,0,0-.69-2.89,8.516,8.516,0,0,0-2.06-2.39h2.4l2.53-1.59h-7.66a13.708,13.708,0,0,0-3.99.58,9.209,9.209,0,0,0-3.34,1.76,7.026,7.026,0,0,0-1.82,2.36,6.619,6.619,0,0,0-.66,2.87,5.73,5.73,0,0,0,1.87,4.4,6.433,6.433,0,0,0,4.57,1.74c0.27,0,.68-0.02,1.25-0.07a3.91,3.91,0,0,0-.39,1.53,2.973,2.973,0,0,0,.28,1.32,8.127,8.127,0,0,0,.88,1.33c-3.34.21-5.81,0.82-7.41,1.8a6.729,6.729,0,0,0-2.17,2.07,4.788,4.788,0,0,0-.82,2.7,4.356,4.356,0,0,0,.68,2.36,5.782,5.782,0,0,0,3.14,2.48,13.356,13.356,0,0,0,4.52.75,14.307,14.307,0,0,0,5.46-1.04,7.792,7.792,0,0,0,3.87-3.23,6.05,6.05,0,0,0,.88-3.12,5.6,5.6,0,0,0-.58-2.56,6.407,6.407,0,0,0-1.42-1.87q-0.825-.72-1.65-1.32a9.9,9.9,0,0,1-1.42-1.23,1.82,1.82,0,0,1-.59-1.27A1.925,1.925,0,0,1,1207.35,2548.16Zm-4.9-1.01a4.515,4.515,0,0,1-1.37-1.2,8.466,8.466,0,0,1-.96-1.67,9.447,9.447,0,0,1-.57-1.86,9.167,9.167,0,0,1-.19-1.75,4.4,4.4,0,0,1,.87-2.88,3.08,3.08,0,0,1,1.2-.95,3.546,3.546,0,0,1,1.51-.35,3.394,3.394,0,0,1,2.14.74,5.3,5.3,0,0,1,1.55,1.86,11.184,11.184,0,0,1,.89,2.33,9,9,0,0,1,.31,2.26,3.981,3.981,0,0,1-.97,2.86,3.329,3.329,0,0,1-1.21.78,3.746,3.746,0,0,1-1.43.3A3.451,3.451,0,0,1,1202.45,2547.15Zm-0.53,15.94a9.791,9.791,0,0,1-2.18-.79,4.5,4.5,0,0,1-1.68-1.5,3.883,3.883,0,0,1-.64-2.22,3.7,3.7,0,0,1,.5-1.91,4.123,4.123,0,0,1,1.25-1.34,7.515,7.515,0,0,1,1.78-.83,12.607,12.607,0,0,1,1.97-.45,15.505,15.505,0,0,1,1.93-.12c0.39,0,.68.01,0.88,0.03,0.03,0.03.25,0.18,0.66,0.47s0.67,0.47.77,0.54,0.32,0.25.66,0.52a6,6,0,0,1,.71.63q0.18,0.2.54,0.63a3.431,3.431,0,0,1,.5.74,6.679,6.679,0,0,1,.26.76,2.932,2.932,0,0,1,.13.88,3.845,3.845,0,0,1-.5,1.97,3.656,3.656,0,0,1-1.34,1.31,6.9,6.9,0,0,1-1.82.71,9.045,9.045,0,0,1-2.04.23A10.758,10.758,0,0,1,1201.92,2563.09Zm17.19-19.43h-1.93v3.91h-3.88v1.94h3.88v3.95h1.93v-3.95h3.9v-1.94h-3.9v-3.91Z" transform="translate(-1194 -2535)"/>
</svg>
