<svg version="1.0" xmlns="http://www.w3.org/2000/svg"
 width="25" height="26" viewBox="0 0 217 217"
 preserveAspectRatio="xMidYMid meet">
<g fill="#f7f7f7" transform="translate(140,248) scale(0.125000,-0.125000) rotate(45)" stroke="none">
<path d="M588 2160 c-9 -6 -51 -52 -94 -103 -352 -418 -548 -1018 -479 -1467
49 -329 203 -522 458 -577 96 -20 257 -13 349 16 233 74 390 321 405 641 24
495 -187 1070 -527 1433 -62 67 -80 75 -112 57z m59 -85 c12 -8 50 -50 84 -92
296 -368 475 -905 439 -1319 -19 -217 -76 -362 -185 -469 -102 -101 -199 -137
-370 -136 -299 1 -467 153 -536 486 -29 139 -22 384 15 563 74 348 252 713
454 928 55 58 66 62 99 39z"/>
<path d="M561 1963 c-124 -140 -281 -427 -350 -638 -123 -380 -129 -725 -14
-964 83 -173 248 -262 458 -248 286 20 441 217 461 585 21 369 -101 767 -346
1126 -102 150 -132 186 -154 186 -8 0 -33 -21 -55 -47z m63 -145 c54 -296 51
-1444 -4 -1592 -7 -19 -8 -18 -13 9 -34 165 -45 1076 -18 1437 13 180 22 216
35 146z m-113 -80 c-111 -493 -115 -1012 -10 -1421 11 -44 18 -82 15 -85 -10
-9 -74 140 -101 233 -43 150 -58 302 -52 545 6 234 20 347 68 540 32 129 88
295 96 286 3 -2 -4 -47 -16 -98z m264 -89 c148 -513 131 -1086 -42 -1394 -13
-25 -26 -45 -27 -45 -2 0 10 53 25 118 57 233 73 371 73 662 1 164 -4 305 -12
370 -13 98 -53 351 -67 416 -15 69 17 -11 50 -127z"/>
</g>
</svg>