<svg xmlns="http://www.w3.org/2000/svg" width="59.437" height="60.16" viewBox="0 0 59.437 60.16">
  <metadata><?xpacket begin="﻿" id="W5M0MpCehiHzreSzNTczkc9d"?>
<x:xmpmeta xmlns:x="adobe:ns:meta/" x:xmptk="Adobe XMP Core 5.6-c142 79.160924, 2017/07/13-01:06:39        ">
   <rdf:RDF xmlns:rdf="http://www.w3.org/1999/02/22-rdf-syntax-ns#">
      <rdf:Description rdf:about=""/>
   </rdf:RDF>
</x:xmpmeta>
                                                                                                    
                                                                                                    
                                                                                                    
                                                                                                    
                                                                                                    
                                                                                                    
                                                                                                    
                                                                                                    
                                                                                                    
                                                                                                    
                                                                                                    
                                                                                                    
                                                                                                    
                                                                                                    
                                                                                                    
                                                                                                    
                                                                                                    
                                                                                                    
                                                                                                    
                                                                                                    
                           
<?xpacket end="w"?></metadata>
<defs>
    <style>
      .cls-1 {
        fill: #49743f;
        fill-rule: evenodd;
      }
    </style>
  </defs>
  <path id="sesame_копия" data-name="sesame копия" class="cls-1" d="M490.577,1876.27a29.707,29.707,0,1,1,29.474,30.1C503.841,1906.43,490.57,1892.81,490.577,1876.27Zm29.624,27.77c15.182,0.25,27.634-12.41,27.637-27.87A27.57,27.57,0,1,0,520.2,1904.04Zm6.327-33.9c-0.026,5.64-4.572,9.11-8.623,7.3-3.02-1.35-4.83-5.51-3.544-9.07a36.876,36.876,0,0,1,3.606-6.83,2.722,2.722,0,0,1,4.154-.47C524.529,1863.87,526.311,1867.02,526.528,1870.14Zm-6.464-7.65c-2,2.62-3.932,5.24-3.815,8.79a4.759,4.759,0,0,0,3.623,4.43c1.672,0.25,3.5-1.21,4.177-3.33C524.929,1869.64,523.009,1864.75,520.064,1862.49Zm17.288,17.7a13.4,13.4,0,0,1-2.787,7.79c-2.616,3.14-6.983,3.59-9.483,1.15-2.6-2.54-2.424-7.28.483-10.02,2.485-2.34,5.66-3.29,8.881-3.91C536.331,1874.83,537.464,1876.47,537.352,1880.19Zm-1.738-2.23-0.651-.48c-3.188.4-6.139,1.4-8.4,3.93a5.059,5.059,0,0,0-.947,1.87c-0.908,2.97.909,5.23,3.937,5.01a4.445,4.445,0,0,0,4.073-2.91C534.506,1882.99,534.97,1880.44,535.614,1877.96Zm-32.8,1.52c0.07-3.86,1.554-5.22,5.043-3.96a25.386,25.386,0,0,1,7.2,3.76c2.452,1.96,2.845,4.96,1.657,7.92a5.01,5.01,0,0,1-4.8,3.27c-3.116.07-5.664-1.18-6.935-4.16A68.894,68.894,0,0,1,502.811,1879.48Zm2.439-2.2c0.266,3.73.345,7.18,3.023,9.76a4.187,4.187,0,0,0,4.717.94,3.232,3.232,0,0,0,2.051-3.57,6.869,6.869,0,0,0-1.343-3.34C511.6,1878.65,508.694,1877.8,505.25,1877.28Z" transform="translate(-490.563 -1846.22)"/>
</svg>
