<svg xmlns="http://www.w3.org/2000/svg" width="59.406" height="59.93" viewBox="0 0 59.406 59.93">
  <path fill="#aba000" d="M519.791,1926.66c16.481,0,29.625,13.39,29.608,30.16-0.016,16.2-12.876,29.49-28.759,29.76A29.964,29.964,0,1,1,519.791,1926.66Zm-27.629,29.76c0.134,15.13,11.53,28.11,27.5,28.04,15.6-.08,27.3-12.31,27.579-27.47A27.541,27.541,0,1,0,492.162,1956.42Zm17.949,7.19a60.207,60.207,0,0,1-1.415-6.38c-0.283-2.43.283-2.87,2.459-2.83a65.529,65.529,0,0,1-1.081-6.78c-0.169-2.83.84-3.43,3.572-2.5,0.494,0.17.979,0.37,1.688,0.63-1.051-3.88.16-7.02,2.669-9.77,1.439-1.58,2.271-1.56,3.692.09,2.367,2.75,3.43,5.84,2.342,9.59,1.18-.33,2.193-0.7,3.238-0.88a1.563,1.563,0,0,1,2.052,1.75c-0.191,2.59-.574,5.16-0.884,7.8,0.391,0.16,1.666.28,1.982,0.9a6.56,6.56,0,0,1,.229,3.24,11.112,11.112,0,0,1-.628,2.56c-0.266.84-.628,1.64-1,2.59a3.694,3.694,0,0,1,1.789.05c0.66,0.49,1.586,1.31,1.552,1.95-0.205,3.78-1.083,7.36-4.158,9.97-4.035,3.41-8.681,3.71-13.369,2.13-4.65-1.58-7-5.27-7.52-10.16-0.043-.41-0.08-0.83-0.151-1.23-0.347-1.97.252-2.69,2.269-2.72h0.677Zm-0.651,2.51c-0.506,5.44,4.729,10.65,8.875,9.82C518.814,1970.2,514.069,1965.75,509.46,1966.12Zm11.514,9.79c4.582,0.85,9.595-4.72,8.933-9.77C524.985,1965.97,520.774,1970.88,520.974,1975.91Zm7.463-19c-4.139,0-8.045,4.52-7.327,8.82C524.27,1965.96,528.723,1962.27,528.437,1956.91Zm-10.091,8.78c0.773-3.43-2.733-9.12-7.37-8.61C511.346,1962.32,514.3,1965.77,518.346,1965.69Zm1.316-17.67c3.661-2.9,3.166-8.37.033-10.37C516.354,1940.86,516.34,1945.46,519.662,1948.02Zm-1.318,8.16c0.659-4.52-2.091-8.55-6-8.82C511.433,1951.84,515.453,1956.23,518.344,1956.18Zm8.773-8.89c-4.124.64-6.575,4.27-6.083,8.86C524.713,1955.93,527.607,1951.78,527.117,1947.29Zm-8.9,20.95c0.566,0.93,1,1.65,1.519,2.51,0.528-.91.952-1.64,1.458-2.51h-2.977Z" transform="translate(-490 -1926.66)"/>
</svg>
